<?xml version="1.0" encoding="UTF-8"?>
<svg width="446" height="829" viewBox="0 0 446 829" xmlns="http://www.w3.org/2000/svg">
  <style>path { fill: #630F00; fill-rule: evenodd; }</style>
  <path d="M349,533L351,535L351,532Z M340,531L340,535L342,535Z M103,532L103,535L105,535L105,531Z M310,526L309,529L307,530L308,534L309,532L308,530L310,528Z M135,526L135,528L137,530L136,532L137,534L138,530L136,529Z M309,516L309,518L310,520L312,520L311,516Z M133,517L133,520L135,520L136,518L136,516Z M350,515L349,518L348,520L348,524L350,518L352,518L352,515Z M93,515L93,518L96,519L97,524L97,520L96,518L95,515Z M308,514L308,512L309,510L308,508Z M137,512L137,514L138,508Z M102,508L100,511L103,510Z M303,505L304,502L303,500Z M141,503L142,505L143,500Z M345,499L345,504L349,505L348,501L347,504Z M100,499L98,504L96,501L96,505L99,503Z M342,488L343,493L344,489Z M103,488L101,489L102,493Z M347,474L345,477L349,477L349,473Z M96,473L96,477L98,476L100,477L100,474L98,474Z M342,464L343,467L341,469L339,469L340,471L342,470L342,468L344,467L344,463Z M101,463L101,467L103,468L105,471L104,469L102,467Z M348,455L346,456L347,459L350,463L351,458Z M97,455L94,458L95,463L98,459L99,456Z M100,452L101,455L102,451Z M315,411L317,413L318,410L317,408Z M127,411L128,413L130,411L129,408Z M320,406L320,408L322,412L323,408L322,406Z M123,406L122,408L123,412L125,408L125,406Z M164,400L166,402L166,398Z M319,392L317,394L317,398L318,396L320,397Z M132,392L131,396L133,395Z M124,393L125,397L127,396L129,398L128,394L126,392Z M307,391L307,394L309,394L309,390Z M135,392L136,394L138,394L137,390Z M278,387L277,393L279,392L279,389Z M167,387L166,389L168,393Z M285,385L284,387L282,389L282,391L283,393L284,390Z M160,385L160,389L162,393L163,391L163,389L161,387Z M273,385L274,387L274,382Z M170,383L171,387L172,385L172,382Z M278,374L278,378L280,378L280,376Z M167,374L165,376L165,378L168,377Z M308,373L307,376L309,383L311,383L313,385L313,382L310,381L308,378Z M272,373L272,375L274,374Z M171,374L173,375L173,373Z M137,373L137,378L135,381L132,385L134,383L137,382L138,376Z M277,367L277,369L280,369L282,370L281,367L280,369L279,367Z M163,370L165,369L168,369L168,367L166,367L165,369L164,367Z M271,366L270,369L274,369L272,368Z M174,366L173,368L171,369L173,371L175,369Z M307,363L308,366L309,363Z M136,363L137,366L138,363Z M281,355L280,358L277,360L278,362L280,361L281,359Z M164,355L164,358L165,361L167,362L168,360L165,358Z M315,346L314,349L316,348Z M130,346L129,348L131,349Z M306,345L306,349L303,352L303,354L305,354L305,351L307,349Z M139,345L138,349L140,351L140,354L142,354L142,352L139,349Z M309,338L311,338L311,336L310,334Z M134,336L134,338L136,338L136,334Z M306,326L308,326L310,327L310,323Z M135,323L135,327L137,326L139,325Z M262,294L264,298L265,295L264,293Z M181,293L180,295L181,298L183,294Z M255,291L255,296L257,296Z M188,292L188,296L190,296L190,291Z M260,279L258,280L255,283L254,286L255,288L257,288L258,284L259,286L261,286L261,283L263,280Z M260,280L262,282L259,282Z M182,280L184,283L184,286L186,286L187,284L188,288L190,288L191,286L190,283L187,280L185,279Z M249,276L248,280L250,283Z M196,276L196,283L196,281Z M258,265L257,267L254,268L255,276L256,274L258,273Z M187,265L187,273L189,274L190,276L190,267L188,267Z M244,234L243,237L244,239L245,236Z M201,234L200,236L201,239L202,237Z M249,236L251,235L251,231L250,226Z M194,231L196,236L196,226Z M241,220L242,222L243,224L244,227L246,228L246,226L245,223Z M200,223L199,226L199,228L201,227L202,224L203,222L204,220Z M216,215L216,218L214,220L213,224L209,224L209,226L207,228L207,232L205,235L205,239L203,242L203,244L200,247L196,247L192,248L189,249L190,246L192,246L194,245L195,243L195,241L193,241L192,244L190,245L189,242L187,242L185,244L184,246L184,248L182,251L184,253L184,255L183,257L182,259L183,261L184,258L186,256L185,254L188,251L189,254L188,257L189,260L191,262L192,265L193,268L195,269L197,269L199,271L201,271L205,270L205,273L203,276L203,278L205,280L207,283L206,289L202,289L198,291L198,292L196,293L195,291L193,291L193,295L196,294L198,296L197,299L191,299L188,301L179,301L175,302L174,303L169,304L166,304L164,302L162,302L159,300L151,300L146,301L145,303L141,303L137,305L135,307L135,311L133,312L133,314L135,313L137,315L138,318L139,316L141,321L142,319L143,313L145,315L145,319L146,322L147,325L148,327L150,330L154,334L157,335L159,337L161,337L164,339L164,345L166,347L165,349L164,347L163,350L167,351L169,349L171,352L173,358L174,356L174,352L171,353L171,347L169,348L168,344L169,341L171,345L172,343L173,341L175,343L175,345L177,349L181,350L184,353L184,359L186,362L187,365L189,367L192,369L194,369L196,371L197,381L197,387L196,390L194,394L191,397L192,402L189,405L186,412L184,414L183,416L180,415L178,413L173,412L165,410L166,407L164,406L163,409L165,410L162,412L143,411L140,411L134,411L134,408L133,412L131,415L129,417L127,417L125,415L121,413L118,412L99,412L96,413L92,415L85,422L83,426L83,432L86,435L93,435L95,433L98,432L99,437L100,439L98,440L97,442L97,444L99,447L100,440L101,444L103,446L104,449L106,452L110,457L118,465L122,468L124,470L127,472L132,474L133,479L130,476L129,478L133,480L133,483L135,485L137,487L138,490L133,491L133,497L135,496L138,498L140,492L140,487L137,482L136,482L135,478L138,476L140,478L141,481L141,478L146,477L149,478L150,479L160,480L161,483L163,486L167,490L170,491L173,494L173,497L175,499L177,503L177,505L185,514L189,515L190,517L190,520L189,529L188,532L186,536L168,536L156,536L146,537L143,539L140,535L140,537L134,542L131,542L129,544L120,544L118,546L116,547L113,547L110,546L107,544L105,544L103,542L101,541L94,540L82,540L77,541L73,542L71,544L68,544L66,546L63,547L58,547L55,548L53,549L50,552L45,550L33,550L27,551L25,553L23,553L21,554L18,556L14,560L13,562L13,565L11,567L11,570L12,573L12,576L11,579L9,581L9,589L11,591L14,594L22,593L25,593L27,595L29,600L31,603L34,607L37,611L51,625L54,627L55,627L59,631L62,632L64,634L67,636L69,636L71,638L77,641L79,641L81,643L85,645L87,645L92,648L95,648L97,650L100,650L103,652L105,652L108,654L112,655L116,655L119,656L120,657L126,657L129,658L130,659L137,659L141,663L144,667L149,672L148,676L143,680L140,682L139,682L133,688L131,691L131,693L128,698L128,700L125,706L123,709L117,715L113,718L112,718L106,724L103,730L103,739L104,742L105,744L108,747L112,750L115,752L125,757L128,758L131,759L134,759L137,761L141,762L144,763L149,763L152,765L160,766L168,766L175,767L176,768L203,767L217,768L228,768L242,767L269,768L276,767L277,766L285,766L293,765L296,763L301,763L304,762L308,761L311,759L314,759L317,758L320,757L330,752L333,750L337,747L340,744L341,742L342,739L342,730L339,724L333,718L329,715L328,715L322,709L320,706L317,700L317,698L314,693L314,691L312,688L306,682L303,680L302,680L297,676L296,672L301,667L304,663L308,659L315,659L318,658L319,657L325,657L328,656L329,655L333,655L337,654L340,652L342,652L345,650L348,650L350,648L353,648L358,645L360,645L364,643L366,641L368,641L374,638L376,636L378,636L381,634L383,632L386,631L390,627L393,625L394,625L408,611L411,607L414,603L416,600L418,595L420,593L423,593L431,594L434,591L436,589L436,581L434,579L433,576L433,573L434,570L434,567L432,565L432,562L431,560L427,556L424,554L422,553L420,553L418,551L412,550L400,550L395,552L392,549L390,548L387,547L382,547L379,546L377,544L374,544L372,542L368,541L363,540L351,540L344,541L342,542L340,544L338,544L335,546L332,547L329,547L327,546L325,544L316,544L314,542L311,542L305,537L304,535L302,539L299,537L289,536L277,536L259,536L257,532L256,529L255,520L255,517L256,515L260,514L268,505L268,503L270,499L272,497L272,494L275,491L278,490L282,486L284,483L285,480L295,479L298,478L299,477L304,478L304,481L305,478L308,476L310,478L309,482L306,487L305,487L305,492L307,498L310,496L312,497L312,491L309,492L307,490L308,487L310,485L312,483L313,479L316,478L314,476L310,477L313,474L318,472L321,470L323,468L327,465L335,457L339,452L341,449L342,446L344,444L345,440L347,447L348,444L348,442L347,440L346,437L347,432L350,433L352,435L359,435L362,432L362,426L360,422L353,415L349,413L346,412L327,412L324,413L320,415L318,417L316,417L314,415L312,412L311,408L310,412L305,411L302,411L283,412L280,410L282,409L281,406L279,407L279,412L272,412L267,413L265,415L262,416L261,414L259,412L256,405L253,402L254,397L251,394L249,390L248,387L248,381L249,371L251,369L253,369L256,367L258,365L259,362L261,359L261,353L264,350L268,349L270,345L270,343L272,341L273,343L274,345L276,341L277,344L278,346L276,348L274,347L272,354L271,352L271,355L272,358L274,357L274,352L276,349L278,351L282,350L281,347L280,349L279,347L279,344L281,345L281,339L283,338L286,337L288,335L291,334L295,330L297,327L298,325L299,322L300,319L300,315L302,313L303,319L304,321L306,316L307,318L309,317L308,315L310,313L312,314L312,312L310,311L310,307L308,305L304,303L300,303L299,301L295,301L286,300L283,302L281,302L279,304L276,304L271,303L267,302L266,301L257,301L254,299L247,298L247,296L252,295L252,291L250,291L247,292L244,290L243,289L238,288L238,283L240,280L242,278L242,276L240,273L242,269L244,271L246,271L248,269L250,269L252,268L253,265L254,262L256,260L257,257L257,255L257,251L260,254L259,256L261,258L262,261L262,257L261,255L261,253L263,250L261,248L261,246L260,244L258,242L256,242L255,245L253,244L252,241L250,241L250,243L251,245L253,246L256,247L254,250L253,248L250,248L245,247L242,244L242,242L240,239L240,235L238,232L238,228L236,226L235,223L232,224L231,220L229,218L229,215L226,215L226,220L222,223L219,220L219,215Z M223,761L225,763L220,763Z M276,757L279,757L283,759L284,763L276,764L268,763L271,760L274,758Z M258,757L260,759L263,761L264,761L264,764L260,764L252,764L252,762L256,759Z M188,757L189,759L193,762L192,765L185,764L181,764L181,761L184,759Z M166,757L169,757L171,758L174,760L177,763L169,764L160,761L162,759Z M293,755L296,755L298,756L298,759L296,759L293,761L287,760L291,756Z M236,755L241,755L247,761L248,763L238,763L232,763L230,761L232,758L232,757Z M204,755L209,755L213,757L215,760L213,763L207,763L197,763L198,761Z M149,755L152,755L154,756L158,760L152,761L149,759L147,756Z M307,752L312,753L311,756L309,757L303,756Z M134,752L138,752L142,756L136,757L134,756Z M319,748L323,748L324,752L320,754L316,753L316,751Z M122,748L126,748L129,751L128,754L125,754L121,752L120,750Z M332,741L335,742L335,744L332,747L329,749L328,745Z M111,741L113,741L117,745L116,749L114,747L110,744Z M337,730L339,732L339,738L335,739L335,736L335,732Z M108,730L110,732L110,736L108,740L106,738L106,732Z M114,724L115,727L117,729L121,732L129,736L131,736L134,738L137,738L140,740L144,740L146,742L151,742L155,743L156,744L160,745L168,745L173,746L174,747L271,747L276,746L277,745L285,745L289,744L293,743L294,742L299,742L301,740L305,740L308,738L311,738L314,736L316,736L324,732L328,729L330,727L331,724L333,723L337,727L336,729L333,732L333,738L331,740L328,742L327,744L327,746L325,748L322,746L320,746L316,748L313,752L310,750L305,751L303,753L300,756L298,754L291,754L288,757L284,758L280,756L275,756L271,758L268,760L265,761L263,758L260,757L257,757L254,758L251,760L249,762L248,760L247,758L245,756L242,754L234,754L232,756L230,758L228,760L227,762L222,758L218,762L217,760L215,758L213,756L211,754L203,754L200,756L198,758L197,760L196,762L194,760L191,758L188,757L185,757L182,758L180,761L178,762L177,760L174,758L170,756L165,756L161,758L159,759L157,757L154,754L147,754L144,756L142,753L140,751L135,750L132,752L129,748L125,746L123,746L120,748L118,746L118,744L117,742L115,740L112,738L112,732L109,729L108,727Z M148,680L150,681L151,683L143,691L142,694L140,696L140,698L138,700L137,704L137,706L138,704L143,694L145,691L147,688L150,687L153,685L156,685L158,688L154,692L152,695L150,699L149,702L149,707L147,710L147,715L145,718L144,723L147,722L147,720L149,718L150,715L150,711L151,708L152,704L153,701L154,698L156,695L160,691L164,692L161,695L161,697L159,700L159,714L158,720L157,721L157,725L159,723L159,719L161,717L161,706L162,703L163,699L164,697L169,692L171,691L181,691L183,692L183,695L182,697L181,700L180,705L179,709L180,721L180,713L181,710L182,709L182,702L183,699L184,696L187,693L192,693L200,695L203,701L204,705L205,710L204,714L204,716L205,731L206,733L208,735L208,731L207,702L205,699L205,697L203,695L216,695L216,697L215,700L214,701L213,731L213,735L215,734L217,727L217,704L218,700L219,696L223,693L226,696L227,700L228,704L228,727L230,734L232,735L232,731L231,701L230,698L229,697L230,694L242,695L240,697L240,699L238,702L237,731L237,735L239,733L240,731L241,716L241,714L240,710L241,705L242,701L245,695L253,693L258,693L261,696L262,699L263,702L263,709L264,712L265,713L266,721L266,709L265,705L264,700L263,697L262,695L262,692L264,691L274,691L276,692L281,697L282,699L283,703L284,706L284,717L286,719L286,723L288,725L288,721L287,715L286,714L286,700L284,697L284,695L285,691L289,695L291,698L292,701L293,704L294,708L295,711L295,715L296,718L298,720L299,723L301,723L300,718L298,715L298,710L296,707L296,702L295,699L293,695L291,692L287,687L289,685L292,685L295,687L298,688L300,691L302,694L307,704L308,706L308,704L307,700L305,698L305,696L303,694L302,691L295,681L297,680L299,682L303,685L304,685L307,688L310,692L312,697L314,699L314,701L316,704L316,706L317,708L319,711L328,720L328,723L326,726L323,729L320,731L316,733L312,734L309,735L304,736L301,736L298,737L297,738L294,738L291,740L286,740L283,741L282,742L274,743L265,744L252,745L224,744L221,744L193,745L180,744L171,743L163,742L160,741L159,740L154,740L151,738L148,738L145,737L144,736L141,736L136,735L133,734L129,733L125,731L122,729L119,726L117,723L117,720L126,711L128,708L129,706L129,704L131,701L131,699L133,697L135,692L138,688L141,685L145,682Z M153,675L157,675L161,676L165,677L166,678L173,678L176,679L177,680L193,681L211,681L233,680L234,681L252,681L268,680L271,679L272,678L279,678L283,677L284,676L288,675L293,676L293,678L290,681L288,683L284,685L281,685L278,687L272,687L269,688L268,689L252,690L193,690L177,689L174,688L173,687L167,687L164,685L161,685L157,683L155,681L152,678Z M144,662L158,661L166,662L169,664L172,664L175,666L181,667L185,667L190,668L192,668L202,667L208,666L209,665L211,665L215,666L216,667L229,667L233,666L234,665L236,665L242,666L243,667L253,668L255,668L260,667L264,667L270,666L273,664L276,664L279,662L287,661L301,662L293,670L291,671L289,671L287,673L282,673L278,674L277,675L271,676L260,677L185,677L174,676L168,675L164,674L163,673L158,673L156,671L154,671L152,670Z M179,600L184,600L187,602L189,602L198,611L201,615L203,617L211,617L213,616L221,608L224,608L232,616L234,617L242,617L244,615L247,611L256,602L258,602L261,600L266,600L268,601L271,603L278,610L279,613L281,615L284,621L284,623L286,626L287,630L288,633L288,642L287,645L284,651L278,657L274,660L270,662L268,662L265,664L259,663L259,648L257,648L258,656L258,661L256,663L253,664L243,664L239,663L237,662L236,658L237,646L235,638L235,642L234,657L232,662L229,664L216,664L213,662L211,657L211,643L209,638L209,645L208,657L209,658L208,662L206,663L202,664L192,664L189,663L187,661L187,656L188,648L186,648L185,664L180,664L177,662L175,662L171,660L167,657L161,651L158,645L157,642L157,633L158,630L159,626L161,623L161,621L164,615L166,613L167,610L174,603L177,601Z M270,594L277,595L279,597L283,597L286,598L287,599L291,600L294,601L299,602L309,602L313,601L316,600L322,597L324,595L326,595L328,597L326,597L316,606L308,615L305,619L303,622L302,625L300,627L300,629L298,631L298,633L296,635L294,640L292,642L291,630L290,627L289,624L288,621L285,615L283,613L282,610L277,604L269,596Z M119,595L121,595L123,597L129,600L132,601L136,602L146,602L151,601L154,600L158,599L161,598L162,597L166,597L168,595L175,594L176,596L168,604L163,610L162,613L160,615L157,621L156,624L155,627L154,630L153,642L151,640L149,635L147,633L147,631L145,629L145,627L143,625L142,622L140,619L137,615L129,606L119,597L116,596Z M377,590L378,593L379,596L380,597L381,600L381,616L380,619L377,625L375,628L369,634L367,636L365,638L362,639L360,641L358,641L356,643L353,643L350,643L351,641L352,639L354,637L354,635L355,632L353,635L351,638L351,639L344,646L341,648L338,650L335,650L333,652L328,653L322,654L318,653L321,650L328,644L330,641L333,637L335,633L335,631L336,629L336,625L335,627L333,630L332,632L332,634L328,638L328,640L326,641L319,648L318,650L315,652L309,655L307,655L305,657L299,656L302,653L304,652L306,650L308,648L310,644L312,643L314,639L316,637L317,635L314,636L305,646L303,648L297,655L294,657L292,657L289,659L285,657L291,651L293,648L295,645L296,642L298,640L298,638L300,636L300,634L302,633L303,629L305,626L307,624L308,621L312,617L314,614L314,613L321,606L327,601L332,597L335,595L341,592L350,592L353,595L355,597L358,600L359,603L361,606L363,608L365,609L369,609L372,607L373,605L374,603L374,597L375,594Z M194,591L196,591L203,596L205,598L205,600L207,602L207,605L208,607L209,605L210,603L210,601L214,596L217,593L219,592L226,592L228,593L231,596L235,601L235,603L236,605L237,607L238,605L238,602L240,600L240,598L242,596L249,591L251,591L253,590L255,592L257,593L259,593L261,595L263,596L259,597L256,599L254,599L249,604L247,606L241,613L239,614L235,614L233,613L228,607L226,605L222,603L219,605L217,607L212,613L210,614L206,614L204,613L198,606L196,604L191,599L189,599L186,597L182,596L184,595L186,593L188,593L190,592Z M68,590L69,593L70,596L71,597L71,603L72,605L73,607L76,609L80,609L82,608L84,606L86,603L87,600L90,597L92,595L95,592L104,592L110,595L113,597L118,601L124,606L131,613L133,616L133,617L137,621L138,624L140,626L142,629L143,633L145,634L145,636L147,638L147,640L149,642L150,645L152,648L154,651L159,659L156,659L153,657L151,657L148,655L142,648L140,646L131,636L128,635L129,637L131,639L133,643L135,644L137,648L139,650L141,652L143,653L146,656L140,657L138,655L136,655L130,652L127,650L126,648L119,641L117,640L117,638L113,634L113,632L112,630L110,627L109,625L109,629L110,631L110,633L112,637L115,641L117,644L124,650L127,653L123,654L117,653L112,652L110,650L107,650L104,648L101,646L94,639L92,636L92,635L89,632L91,635L91,637L93,639L94,641L95,643L92,643L89,643L87,641L85,641L83,639L80,638L78,636L76,634L70,628L68,625L65,619L64,616L64,600L65,597L66,594Z M364,584L372,585L373,589L372,591L372,596L371,599L370,603L367,606L363,602L360,597L358,595L353,590L349,588L344,587L354,586L357,588L359,588L361,590L363,591L363,589L361,586Z M192,584L199,585L200,587L205,586L206,589L208,586L209,588L212,586L219,585L226,585L233,586L236,588L237,586L239,589L242,585L245,587L246,585L253,584L253,587L251,588L247,588L241,591L239,593L237,596L233,592L230,590L228,590L226,588L224,588L221,588L219,588L217,590L215,590L212,592L208,596L206,594L204,591L198,588L194,588L192,587Z M81,584L84,586L82,589L82,591L84,590L86,588L88,588L91,586L101,587L96,588L92,590L87,595L85,597L82,602L78,606L75,603L74,599L73,596L73,591L72,589L71,587L73,585Z M418,583L422,583L426,588L422,589L420,589L418,590L415,592L413,595L413,597L411,599L410,602L408,604L407,607L404,611L398,617L396,611L395,613L395,616L394,618L392,621L386,627L382,629L380,630L380,627L383,621L384,618L385,610L385,608L384,601L383,594L381,592L382,588L385,588L388,590L395,591L404,591L408,590L411,587L414,586L416,584Z M23,583L27,583L29,584L31,586L34,587L37,590L41,591L50,591L57,590L60,588L64,589L64,592L62,594L61,601L60,608L60,610L61,618L62,621L65,627L65,630L63,629L59,627L53,621L51,618L50,616L50,613L49,611L47,617L41,611L38,607L37,604L35,602L34,599L32,597L32,595L30,592L27,590L25,589L23,589L21,590L19,587Z M278,581L296,581L301,582L302,583L317,584L335,583L340,584L340,586L338,588L332,588L329,590L327,590L314,597L310,598L307,599L300,599L297,597L291,597L288,595L285,595L282,593L278,592L272,591L265,591L258,589L261,586L264,585L267,585L270,583L275,583Z M149,581L167,581L170,583L175,583L178,585L181,585L184,586L187,589L180,591L173,591L167,592L163,593L160,595L157,595L154,597L148,597L145,599L138,599L135,598L131,597L118,590L116,590L113,588L107,588L105,586L106,583L110,583L128,584L143,583Z M399,571L417,571L421,572L425,574L429,577L431,579L432,581L432,584L432,588L430,590L429,586L424,580L422,579L419,580L415,581L413,583L411,583L409,585L403,588L395,588L390,587L385,586L381,585L378,583L373,583L370,581L365,580L367,578L370,576L372,576L374,574L383,574L390,573L391,572Z M28,571L46,571L54,572L61,573L62,574L71,574L73,576L75,576L78,578L80,580L75,581L72,583L67,583L64,585L60,586L55,587L50,588L42,588L36,585L34,583L32,583L30,581L26,580L23,579L21,580L16,586L15,590L13,588L13,584L13,581L14,579L16,577L20,574L24,572Z M178,565L180,565L183,567L188,567L191,569L200,569L202,571L202,575L204,575L203,572L207,571L211,570L220,570L225,570L234,570L238,571L242,572L241,575L243,575L243,571L245,569L254,569L257,567L262,567L265,565L268,566L269,574L269,577L267,579L263,579L260,580L259,581L245,582L237,581L237,574L235,576L233,579L235,578L236,582L232,583L230,583L216,582L215,583L213,583L208,580L210,578L212,579L211,575L208,574L208,581L200,582L186,581L183,580L182,579L178,579L176,577L176,574Z M230,573L229,578L231,577Z M215,573L214,577L218,576Z M183,555L189,555L196,556L197,557L207,557L210,559L211,557L213,563L215,564L217,564L215,560L215,557L219,556L221,556L224,556L226,556L230,560L228,564L230,564L232,563L234,557L235,559L238,557L248,557L255,556L256,555L262,555L264,554L268,558L267,561L263,563L260,563L257,565L251,565L246,566L245,567L241,567L239,565L236,565L234,567L211,567L209,565L206,565L204,567L200,567L195,566L194,565L188,565L185,563L182,563L178,561L177,558Z M401,553L411,553L416,554L422,557L425,560L427,562L429,564L430,566L427,571L423,569L420,569L417,567L402,567L399,568L398,569L389,570L386,569L386,567L388,565L389,562L392,559L394,557L396,555L398,554Z M34,553L44,553L47,554L49,555L51,557L53,559L56,562L57,565L59,567L58,570L56,570L47,569L44,568L43,567L28,567L25,569L22,569L18,571L15,571L15,566L16,564L18,562L20,560L23,557L29,554Z M356,543L360,543L367,544L372,547L374,547L377,549L380,549L383,551L390,552L390,555L388,557L388,559L387,561L385,564L383,567L380,570L378,571L374,571L370,572L368,574L364,574L362,573L360,572L358,573L360,574L361,579L357,583L347,583L344,581L339,580L334,580L318,578L324,579L327,579L329,576L337,577L339,577L342,575L331,573L327,573L326,576L321,576L319,573L321,571L322,568L331,568L322,566L323,563L326,557L328,554L330,553L331,551L333,551L334,549L337,548L340,547L345,548L348,544Z M344,579L346,580L349,580L349,578Z M335,570L337,571L341,572L350,571L348,571L345,570L344,569Z M361,568L359,570L364,570Z M332,563L334,563L337,564L338,565L340,565L339,562Z M85,543L89,543L97,544L100,548L105,547L108,548L111,549L112,551L114,551L115,553L117,554L119,557L122,563L123,566L114,568L123,568L124,571L126,574L124,576L118,575L118,573L114,573L103,575L106,577L108,577L116,576L118,579L121,579L127,581L111,580L106,580L101,581L98,583L88,583L84,579L83,576L85,574L87,573L83,573L81,574L77,574L75,572L71,571L67,571L65,570L62,567L60,564L58,561L57,559L57,557L55,555L56,551L62,551L65,549L68,549L71,547L73,547L78,544Z M96,578L96,580L99,580L101,579Z M101,569L98,570L97,571L95,572L104,572L108,571L110,569Z M84,568L81,570L86,570Z M105,563L105,565L107,565L110,564L111,563L113,562Z M277,539L288,539L296,541L297,540L300,541L305,543L306,549L308,551L310,552L310,549L309,544L311,546L313,547L313,550L315,547L318,547L325,548L327,550L326,552L324,554L321,558L321,561L319,563L319,565L318,567L316,569L314,567L308,567L305,565L301,565L299,566L303,568L306,569L310,569L313,571L315,574L313,575L313,579L297,579L291,578L290,577L278,577L276,579L272,578L273,572L281,570L273,571L273,566L279,567L284,568L285,569L293,570L291,572L294,572L297,573L298,574L306,573L304,572L301,571L294,571L292,569L292,566L289,565L272,564L272,561L271,557L270,554L266,551L264,547L264,544L264,541L269,541Z M305,560L306,562L315,560Z M276,560L277,562L287,561Z M304,553L303,555L304,557Z M316,552L316,556L318,555Z M215,539L231,540L232,547L234,546L236,548L209,548L211,546L213,547Z M157,539L168,539L175,540L181,544L181,547L179,551L175,554L174,557L174,560L172,565L156,565L152,567L153,569L151,571L144,571L141,572L139,573L147,574L150,573L151,572L154,571L152,570L160,569L165,568L166,567L172,566L172,571L164,570L164,573L172,572L172,579L169,579L167,577L155,577L149,578L148,579L131,578L132,575L130,574L130,571L132,571L135,569L139,569L142,568L146,566L144,565L140,565L137,567L131,567L129,569L127,567L126,565L126,563L124,561L124,558L121,554L119,552L118,550L120,548L127,547L130,547L132,550L132,547L134,546L138,546L135,549L135,552L137,551L139,549L141,542L144,542L148,540Z M130,560L131,562L140,560Z M127,553L129,556L129,552Z M253,538L256,538L258,540L259,543L260,545L258,547L255,548L248,549L238,548L238,545L236,543L234,544L234,539Z M189,538L192,538L212,540L211,544L209,543L207,545L206,549L197,549L190,548L187,547L186,543L187,540Z M193,526L197,525L247,526L248,525L252,526L254,530L253,535L235,534L235,532L233,533L232,536L230,532L229,535L216,535L215,532L213,536L210,532L209,535L191,534L191,530Z M233,516L250,516L252,518L251,521L249,521L246,523L236,522L236,520L234,520L232,518Z M216,516L230,517L229,520L229,523L215,522L216,520Z M195,516L213,518L211,520L209,520L208,523L199,523L196,521L193,520L193,518Z M215,507L231,508L230,511L227,513L218,513L215,511Z M260,505L263,505L263,507L260,510L256,512L232,511L234,509L236,510L236,507L238,505L240,506Z M185,505L205,506L207,505L209,507L209,510L211,509L213,511L189,512L185,510L182,507Z M217,496L228,496L227,499L225,502L220,502L218,499Z M262,493L269,494L268,497L264,501L263,499L260,501L257,502L254,500L251,502L244,502L241,500L239,502L232,501L229,503L227,501L230,499L232,495L234,497L235,495L239,494L255,495Z M176,494L183,493L189,494L190,495L206,494L210,495L211,497L215,496L215,499L218,501L215,503L213,501L206,502L204,500L201,502L194,502L191,500L187,502L185,501L182,499L181,501L177,497Z M217,484L220,484L224,485L229,485L229,487L230,489L232,488L232,491L213,488L215,489L216,487Z M277,481L280,482L279,484L277,486L271,489L267,489L264,491L234,490L234,486L232,485L235,484L237,487L241,484L247,485L249,485L251,484L253,487L256,484L272,484Z M165,482L168,481L173,484L189,484L192,487L196,485L198,485L204,484L208,487L210,484L213,485L211,486L210,491L181,491L178,489L174,489L168,486L166,484Z M224,453L224,455L226,457L227,461L228,465L228,467L226,469L227,474L228,481L225,482L220,482L216,480L218,474L219,469L217,467L217,465L218,461L219,457L221,455Z M205,438L212,439L215,439L229,438L230,439L233,439L240,441L240,443L238,447L236,449L236,451L235,453L233,455L233,457L232,459L229,459L229,454L232,453L233,451L232,448L233,446L231,446L230,450L226,450L224,447L224,446L222,444L221,446L219,449L219,450L215,450L214,446L212,446L213,448L212,451L213,453L216,454L213,459L212,457L212,455L210,453L209,451L209,449L207,447L205,443L205,441Z M294,435L296,435L309,437L308,439L305,442L303,447L301,449L300,452L298,454L296,451L296,444L295,441L293,438Z M287,435L290,438L293,444L294,451L294,459L293,465L292,467L289,471L286,474L282,476L280,477L279,474L280,466L279,471L277,475L275,478L271,480L266,479L266,476L268,474L268,470L269,467L270,466L271,458L271,453L270,455L269,459L268,460L268,466L267,471L266,474L265,477L261,481L258,482L254,482L250,481L248,479L250,476L250,472L251,469L252,468L251,464L250,466L249,469L249,474L247,476L242,481L239,481L236,481L233,480L232,478L234,476L236,476L236,467L234,465L234,463L235,460L236,457L238,454L238,452L240,449L242,446L246,442L249,440L251,440L253,438L258,438L261,440L263,442L266,443L268,445L276,445L279,443L282,440L285,436Z M158,435L160,436L163,439L166,443L169,445L177,445L179,443L182,442L184,440L187,438L192,438L194,440L196,440L199,442L203,446L205,449L207,452L207,454L209,457L210,460L211,463L211,465L209,467L209,476L211,476L213,478L212,480L209,481L206,481L203,481L198,476L196,474L196,469L195,466L193,464L193,468L194,471L195,472L195,476L197,479L195,481L191,482L187,482L184,481L180,477L179,474L178,471L177,466L177,460L176,456L174,453L174,458L175,466L176,469L177,470L177,474L179,476L178,480L174,480L170,478L168,475L166,471L165,466L166,474L165,477L163,476L159,474L156,471L153,467L152,465L151,459L151,451L152,444L155,438Z M149,435L152,436L152,438L150,441L149,444L149,451L147,454L145,452L144,449L142,447L140,442L137,439L136,437Z M319,434L325,434L329,436L333,440L335,441L337,441L339,442L339,445L337,448L337,449L332,455L324,463L320,466L317,468L314,470L312,470L310,472L307,472L304,474L300,473L302,471L305,470L306,468L309,467L311,464L314,462L317,459L320,455L321,453L322,449L320,451L318,454L318,455L311,458L310,463L307,464L304,468L300,470L299,472L295,473L292,472L294,470L296,467L298,462L300,460L300,458L302,457L303,454L305,449L307,446L309,443L312,440L314,438L317,435Z M314,444L314,447L312,448L313,451L315,447L316,444Z M120,434L126,434L128,435L131,438L133,440L136,443L138,446L140,449L142,454L143,457L145,458L145,460L147,462L149,467L151,470L153,472L150,473L146,472L145,470L141,468L138,464L134,462L134,458L131,459L127,455L125,452L125,451L122,450L124,452L125,455L128,459L131,461L133,464L136,466L136,467L139,468L140,470L143,471L145,473L141,474L138,472L135,472L133,470L131,470L128,468L125,466L121,463L113,455L108,449L106,446L106,442L108,441L110,441L112,440L116,436Z M129,444L130,447L132,451L133,448L131,447L131,444Z M275,429L278,429L282,429L285,432L283,433L278,438L276,440L274,442L270,442L268,440L266,440L264,438L258,435L251,435L248,435L250,433L253,431L255,431L258,429L267,430L269,430Z M167,429L170,429L176,430L178,430L187,429L190,431L192,431L195,433L197,435L194,435L187,435L181,438L179,440L177,440L175,442L171,442L169,440L167,438L162,433L160,432L163,429Z M209,427L236,427L244,428L246,429L247,431L244,434L241,435L234,436L228,436L218,435L217,436L211,436L204,435L201,434L199,429L201,428Z M331,424L336,424L339,426L342,429L342,435L339,438L337,438L335,437L332,435L330,433L328,432L327,430L329,425Z M109,424L114,424L116,425L118,430L117,432L115,433L113,435L110,437L108,438L106,438L103,435L103,429L106,426Z M300,423L313,423L321,424L323,425L323,429L320,431L315,431L312,432L311,433L297,433L294,432L290,431L286,429L286,426L289,426L292,424Z M132,423L145,423L153,424L156,426L159,429L155,431L151,432L148,433L134,433L131,432L130,431L125,431L122,429L122,425L124,424Z M328,415L345,415L347,417L349,417L352,419L356,423L358,426L359,429L354,431L352,431L350,429L347,429L341,423L339,422L336,421L329,422L324,422L322,421L321,419L323,417L326,417Z M272,415L311,416L311,420L297,420L291,421L285,422L283,424L279,424L276,426L258,425L260,424L263,421L265,419L267,417L269,417Z M188,415L257,415L259,417L259,419L256,422L247,422L239,423L238,424L207,424L199,423L198,422L189,422L186,419L186,417Z M173,415L176,417L178,417L180,419L182,421L185,424L187,425L169,426L166,424L162,424L160,422L154,421L148,420L134,416Z M100,415L117,415L119,417L122,417L123,421L121,422L116,422L109,421L106,422L104,423L98,429L95,429L93,431L91,431L89,432L86,429L87,426L89,423L93,419L96,417L98,417Z M195,404L197,407L201,404L204,404L208,405L218,404L220,407L223,404L225,407L227,404L237,405L240,405L244,404L248,407L250,404L254,408L254,410L252,412L193,412L191,410L191,408Z M205,396L221,396L224,396L240,396L246,397L249,399L246,401L199,401L196,399L199,397Z M201,379L205,379L207,381L207,383L205,386L206,388L207,386L208,383L208,381L210,379L214,379L217,382L219,379L226,379L228,382L231,379L235,379L237,381L237,383L238,386L239,388L240,386L238,383L238,381L240,379L245,380L245,390L247,393L198,393L200,390Z M202,371L243,371L246,374L242,376L203,376L199,374Z M199,360L201,361L207,360L210,360L212,362L218,362L220,360L225,360L227,362L233,362L235,360L238,360L244,361L246,360L248,359L250,361L252,361L254,363L252,365L250,366L246,367L243,368L202,368L199,367L195,366L193,365L191,363L193,361L195,361Z M251,352L255,352L257,354L257,357L252,358L250,356Z M240,352L243,352L245,355L239,357L238,354Z M228,352L233,353L232,359L229,359L226,356L226,354Z M213,352L217,352L219,354L219,356L216,359L212,358Z M202,352L205,352L207,354L206,357L203,358L200,354Z M190,352L195,353L195,356L193,358L190,359L188,357L188,354Z M200,340L206,340L210,341L235,341L237,342L239,340L245,340L253,343L254,341L265,342L265,344L266,342L268,344L263,348L182,348L177,344L179,342L180,344L181,341L192,343L193,341Z M277,339L279,342L276,341Z M166,339L168,342L165,341Z M279,331L276,334L274,331L276,331Z M168,329L169,331L171,332L169,334L166,331Z M289,309L293,311L291,312L288,313Z M153,309L157,310L155,314L154,312L152,311Z M204,308L206,308L211,313L219,313L221,311L224,311L226,313L234,313L239,308L241,308L245,312L247,316L247,327L245,330L244,336L240,336L240,331L239,329L237,338L231,337L231,325L230,323L228,323L227,325L227,329L228,334L228,336L224,337L224,335L222,333L221,335L219,338L217,336L217,334L218,329L218,325L217,323L215,323L214,325L213,338L207,337L206,329L205,331L204,337L201,336L200,330L198,327L198,316L200,312Z M247,307L256,307L258,309L256,311L254,314L254,316L252,319L251,323L250,317L249,313L247,311Z M189,307L198,310L196,313L195,317L194,323L193,319L191,316L191,314L189,311L187,309Z M266,306L268,308L272,311L273,311L277,318L277,323L278,321L280,319L281,313L285,312L285,315L284,317L282,320L282,325L281,328L280,326L278,329L276,326L275,330L274,332L272,334L270,336L267,336L268,333L270,331L271,325L269,322L268,324L267,327L266,331L264,335L261,338L259,336L261,334L260,330L259,332L258,335L255,338L251,337L251,335L252,329L254,326L254,322L257,317L257,315L258,313L261,310L264,307Z M179,306L181,307L184,310L187,313L188,315L188,317L191,322L191,326L193,329L194,335L193,338L190,338L187,335L186,332L185,330L184,334L186,336L184,338L181,335L179,331L179,328L178,325L176,322L174,325L175,331L177,333L178,336L175,336L173,334L171,332L170,330L169,326L167,329L165,326L164,328L163,325L163,320L161,317L160,315L160,312L165,314L165,319L167,321L168,323L168,318L167,316L172,311L176,308Z M270,305L274,304L283,304L284,309L282,311L280,312L276,311Z M209,304L213,305L215,305L229,304L230,305L232,305L237,306L232,311L227,311L222,307L218,311L213,311L208,306Z M162,304L171,304L175,305L169,311L165,312L163,311L161,309L160,306Z M285,303L299,302L301,303L302,305L304,306L306,306L308,311L306,309L301,309L298,312L298,317L296,320L296,322L294,326L289,330L288,332L287,330L283,331L284,327L286,325L286,322L288,319L290,316L298,309L300,306L297,306L294,308L290,308L287,304Z M146,302L160,303L158,304L155,308L151,308L148,306L145,307L147,309L155,316L157,319L159,322L159,325L161,327L162,331L160,332L158,330L157,332L156,330L151,326L149,322L149,320L147,317L147,312L144,309L139,309L137,311L136,309L139,306L141,306L143,305L144,303Z M249,300L253,300L256,301L257,302L264,303L262,304L260,306L244,306L241,304L239,303L246,302Z M192,300L196,300L199,302L206,303L204,304L201,306L185,306L183,304L181,303L188,302Z M203,293L242,293L244,292L246,294L246,297L244,299L241,301L239,302L234,303L226,303L224,302L221,302L219,303L211,303L206,302L204,301L201,299L199,297L199,294Z M209,283L237,285L234,288L211,288L208,285Z M209,280L236,280L226,281L219,281Z M215,257L217,267L217,263L219,258L221,260L224,262L224,260L228,263L228,267L230,257L231,259L232,261L234,263L238,266L238,274L236,275L235,278L224,277L232,275L234,275L232,274L230,274L228,272L220,275L217,272L215,274L213,274L211,275L213,275L221,277L209,277L209,275L207,274L207,266L211,263L213,261L214,259Z M233,249L237,249L240,251L240,253L241,249L243,250L245,251L250,256L252,251L254,253L254,258L252,260L250,264L249,267L246,268L244,268L237,261L234,258L232,255L231,251Z M221,249L224,249L227,253L225,255L221,255L220,255L218,252Z M204,249L205,253L206,251L208,249L212,249L214,251L213,255L211,258L208,261L201,268L199,268L195,266L195,264L193,260L191,258L191,253L195,252L195,256L200,251L202,250Z M217,221L219,223L219,226L221,229L221,231L223,233L224,231L224,229L226,226L226,223L228,221L229,225L231,228L231,232L233,234L233,237L235,240L235,243L236,245L234,247L232,247L230,248L227,248L224,247L221,247L218,248L215,248L213,247L211,247L210,243L210,240L212,237L212,234L214,232L214,228L216,225Z M238,215L240,216L242,216L245,219L250,220L249,218L246,216L242,214Z M203,214L199,216L196,218L195,220L197,221L199,219L203,216L205,216L207,215Z M237,209L233,213L234,216L236,213L241,211L242,209Z M203,209L204,211L209,213L212,216L212,213L208,209Z M225,200L225,203L226,205L229,208L230,210L232,209L233,207L235,207L238,204L236,203L234,204L232,206L229,205L227,201Z M220,200L218,201L216,205L213,206L211,204L209,203L207,205L210,207L212,207L213,209L215,210L216,208L219,205L220,203Z" />
</svg>
